<?xml version="1.0" encoding="iso-8859-1"?>
<!-- Generator: Adobe Illustrator 19.0.0, SVG Export Plug-In . SVG Version: 6.00 Build 0)  -->
<svg version="1.1" id="Capa_1" xmlns="http://www.w3.org/2000/svg" xmlns:xlink="http://www.w3.org/1999/xlink" x="0px" y="0px"
	 viewBox="0 0 511.999 511.999" style="enable-background:new 0 0 511.999 511.999;" xml:space="preserve">
<path style="fill:#FF8828;" d="M464.585,231.462c-0.206-11.803,4.83-25.454,6.624-31.967
	c-22.515-24.476-56.192-60.674-102.715-86.724c-33.008,6.906-100.787,25.028-137.559,35.758
	c-87.639,25.601-129.535,32.401-171.932,57.823c-22.562,42.556-16.823,97.34,25.608,140.745c2.36,2.395,6.325,6.325,10.794,10.58
	c36.568,12.917,104.025,18.436,142.424,24.667c33.837,5.518,88.64,19.746,141.071,23.014
	c22.223-9.083,85.619-50.117,113.179-103.389C483.567,285.746,465.2,260.712,464.585,231.462z"/>
<path style="fill:#EA473B;" d="M378.899,405.358c58.592,3.536,114.603-6.799,122.316-64.741c1.057-7.929,0-15.518-2.324-22.878
	c-1.662-5.33-4.066-10.578-6.815-15.77C466.349,351.703,405.61,394.441,378.899,405.358z"/>
<path style="fill:#D82B27;" d="M84.612,347.097c-42.887-43.872-47.871-98.755-25.608-140.745
	c-62.675,37.579-71.5,84.45-8.943,128.925c12.594,8.982,33.055,18.432,45.344,22.4C90.936,353.422,86.972,349.492,84.612,347.097z"
	/>
<path style="fill:#EA473B;" d="M471.209,199.495c6.625-24.605,3.357-45.283-10.324-63.557
	c-19.318-25.642-60.811-29.535-92.391-23.167C410.575,136.334,441.619,167.329,471.209,199.495z"/>
<g>
	<path style="fill:#F2D422;" d="M230.935,148.53c44.899-13.102,109.657-29.922,137.559-35.758
		c-17.517-9.788-37.993-16.996-63.247-20.484c-60.927-8.394-106.41,13.293-154.927,38.999
		c-40.007,21.212-73.906,42.252-91.317,75.066C101.371,180.948,142.797,174.275,230.935,148.53z"/>
	<path style="fill:#F2D422;" d="M237.828,382.344c-38.389-6.23-105.847-11.748-142.424-24.667
		c7.248,6.963,15.831,14.839,20.69,18.437c25.962,19.156,57.225,35.641,98.535,41.169c50.813,6.797,116.31,6.988,164.27-11.925
		C326.471,402.09,271.628,387.857,237.828,382.344z"/>
</g>
<path style="fill:#F4BD25;" d="M241.95,417.284c-42.425-5.677-81.533-25.123-109.168-50.196c-12.591-2.386-25.408-5.183-37.378-9.41
	c7.248,6.963,15.831,14.839,20.69,18.437c25.962,19.156,57.225,35.641,98.535,41.169c23.662,3.165,49.952,4.784,75.837,3.966
	C273.741,420.738,257.293,419.336,241.95,417.284z"/>
<path style="fill:#FC751A;" d="M122.725,357.677c-4.469-4.255-8.434-8.185-10.794-10.58
	C61.409,295.415,63.97,228.992,99.619,186.853c-13.985,5.45-27.787,11.807-40.614,19.499
	c-22.562,42.556-16.823,97.34,25.608,140.745c2.36,2.395,6.325,6.325,10.794,10.58c11.966,4.227,24.779,7.024,37.378,9.41
	C129.464,364.076,125.962,360.786,122.725,357.677z"/>
<path style="fill:#F4BD25;" d="M177.641,131.286c37.337-19.783,72.887-37.169,115.052-40.313
	c-54.741-4.013-97.248,16.404-142.373,40.313c-40.007,21.212-73.906,42.252-91.317,75.066c12.828-7.691,26.629-14.048,40.614-19.499
	C118.477,164.56,146.166,147.974,177.641,131.286z"/>
<path style="fill:#F2D422;" d="M477.613,206.446c-1.949-2.08-4.08-4.445-6.404-6.951c-1.79,6.5-6.83,20.162-6.624,31.967
	c0.611,29.013,18.359,53.096,27.493,70.506C498.395,289.111,523.261,255.945,477.613,206.446z"/>
<path d="M479.454,197.387c13.857-59.885-30.721-106.319-109.746-92.486c-39.935-21.472-95.23-30.084-151.802-12.119
	c-3.946,1.253-6.129,5.467-4.876,9.414c1.253,3.945,5.467,6.129,9.414,4.876c43.272-13.741,86.431-11.222,123.204,3.191
	c-68.716,16.654-106.065,28.221-154.107,41.539c-78.939,21.882-88.947,25.256-107.553,33.398
	c18.796-19.216,44.475-33.842,69.841-47.291c11.57-6.131,24.017-12.596,36.635-18.34c3.768-1.715,5.432-6.161,3.717-9.929
	c-1.715-3.767-6.16-5.431-9.929-3.717c-12.979,5.908-25.667,12.497-37.445,18.739c-36.635,19.425-73.953,41.323-93.411,76.337
	C-45.68,261.696,8.48,335.356,91.42,364.242c47.313,45.177,91.769,59.461,153.877,63.633c0.171,0.012,0.341,0.018,0.51,0.018
	c3.911,0,7.206-3.035,7.471-6.995c0.278-4.131-2.846-7.704-6.977-7.982c-47.134-3.169-80.634-10.813-121.499-39.761
	c23.928,4.868,50.324,8.282,73.901,11.327c74.005,9.557,83.273,16.006,140.649,24.233c-17.544,3.262-37.36,5.047-58.645,5.229
	c-4.14,0.035-7.467,3.42-7.431,7.56c0.035,4.118,3.384,7.432,7.494,7.432c0.022,0,0.044,0,0.066-0.001
	c33.008-0.283,68.574-4.237,99.248-16.003c62.432,3.515,120.346-9.644,128.557-71.327c1.862-13.954-1.868-26.975-8.174-39.688
	c2.606-5.139,6.654-12.101,8.392-17.577c8.519-26.789-0.383-55.483-25.781-83.024C481.908,200.069,480.666,198.71,479.454,197.387z
	 M466.621,183.545c-19.483-20.734-42.493-43.696-75.854-65.842C445.096,115.648,470.611,145.7,466.621,183.545z M14.812,273.524
	c-0.181-15.784,9.331-31.572,28.278-46.992c-10.345,37.752-2.41,76.404,22.148,109.415
	C44.231,324.116,15.117,300.159,14.812,273.524z M377.657,397.756c-59.877-3.979-96.363-17.725-177.032-28.141
	c-31.63-4.085-75.281-9.651-101.233-18.494c-4.844-4.641-8.408-8.234-9.421-9.263c-39.856-40.77-45.249-90.411-25.28-130.144
	c41.126-24.08,81.955-30.755,168.343-55.987c48.959-14.286,109.045-29.552,134.211-35.021c39.16,22.901,66.49,49.276,95.573,80.752
	c-9.961,32.139-9.504,46.92,20.73,100.529C457.533,349.1,399.862,388.361,377.657,397.756z M493.782,339.627
	c-5.849,43.938-42.401,57.128-86.505,58.685c31.64-20.174,63.902-48.357,83.95-79.888
	C493.612,325.411,494.751,332.367,493.782,339.627z M491.743,286.23c-9.538-16.498-19.244-34.91-19.665-54.9
	c-0.092-5.297,1.145-11.488,2.578-16.951C493.088,235.428,504.346,261.262,491.743,286.23z"/>
<path d="M125.2,260.404h19.415c13.438,0,20.25-5.117,20.25-15.206c0-6.345-3.435-10.132-10.501-11.58v-0.144
	c6.248-2.124,9.158-6.028,9.158-12.288c0-8.337-6.321-13.315-16.909-13.315h-21.414c-1.38,0-2.499,1.118-2.499,2.499v47.535
	C122.701,259.285,123.82,260.404,125.2,260.404z M136.549,217.811h4.03c6.633,0,9.1,1.429,9.1,5.274
	c0,4.605-5.026,5.571-9.242,5.571h-3.888l-0.003-10.846H136.549z M136.549,238.143h4.257c7.241,0,10.193,1.804,10.193,6.226
	c0,4.277-3.098,6.102-10.358,6.102h-4.092l-0.003-12.328H136.549z"/>
<path d="M183.161,258.763l3.493-9.563h19.521l3.285,9.521c0.348,1.008,1.296,1.684,2.362,1.684h9.779
	c0.822,0,1.591-0.405,2.058-1.081c0.466-0.677,0.57-1.539,0.277-2.308L205.8,209.48c-0.37-0.969-1.298-1.608-2.335-1.608h-13.519
	c-1.042,0-1.973,0.645-2.339,1.619l-17.867,47.535c-0.289,0.768-0.182,1.628,0.285,2.302c0.467,0.674,1.234,1.076,2.054,1.076h8.738
	C181.863,260.404,182.802,259.748,183.161,258.763z M196.559,218.728h0.001h0.12l6.214,20.527h-13.047L196.559,218.728z"/>
<path d="M244.738,257.905c0-0.119-0.008-0.235-0.024-0.35l-0.42-33.045h0.164l17.494,34.524c0.426,0.84,1.287,1.369,2.229,1.369
	h13.158c1.38,0,2.499-1.118,2.499-2.499V210.37c0-1.38-1.118-2.499-2.499-2.499h-7.632c-0.666,0-1.303,0.266-1.772,0.738
	c-0.469,0.472-0.731,1.111-0.727,1.777l0.218,33.152h-0.173l-16.875-34.273c-0.42-0.854-1.289-1.394-2.242-1.394h-13.629
	c-1.38,0-2.499,1.118-2.499,2.499v47.535c0,1.38,1.118,2.499,2.499,2.499h7.713c0.007-0.001,0.013-0.001,0.02,0
	C243.619,260.404,244.738,259.285,244.738,257.905z"/>
<path d="M340.571,233.929c0-18.02-9.484-26.056-30.751-26.056h-16.418c-1.38,0-2.499,1.118-2.499,2.499v47.535
	c0,1.38,1.118,2.499,2.499,2.499h16.418C330.224,260.404,340.571,251.496,340.571,233.929z M310.101,250.045h-5.356l-0.003-31.794
	h0.003h5.356c10.27,0,16.161,5.793,16.161,15.893C326.263,244.399,320.522,250.045,310.101,250.045z"/>
<path d="M382.073,258.722c0.348,1.007,1.296,1.683,2.362,1.683h9.815c0.823,0,1.591-0.405,2.058-1.081
	c0.466-0.678,0.57-1.54,0.276-2.309l-18.146-47.535c-0.37-0.969-1.298-1.607-2.334-1.607h-13.52c-1.042,0-1.973,0.645-2.339,1.62
	l-17.867,47.535c-0.289,0.768-0.182,1.628,0.285,2.302c0.467,0.674,1.234,1.076,2.054,1.076h8.721c1.049,0,1.987-0.656,2.347-1.642
	l3.493-9.563l19.508,0.001L382.073,258.722z M369.187,216.229v2.499l0,0V216.229z M362.497,239.255l6.691-20.528h0.138l6.213,20.527
	L362.497,239.255L362.497,239.255z"/>
<path d="M406.542,260.404h8.885c1.38,0,2.499-1.118,2.499-2.499V210.37c0-1.38-1.118-2.499-2.499-2.499h-8.885
	c-1.38,0-2.499,1.118-2.499,2.499v47.535C404.043,259.285,405.163,260.404,406.542,260.404z"/>
<path d="M168.506,276.535h-7.781c-0.666,0-1.303,0.266-1.772,0.738s-0.731,1.111-0.727,1.777l0.211,33.158h-0.153l-17.057-34.287
	c-0.422-0.85-1.289-1.386-2.237-1.386h-13.788c-1.38,0-2.499,1.118-2.499,2.499v47.531c0,1.38,1.118,2.499,2.499,2.499h7.848
	c0.007-0.001,0.014,0,0.02,0c1.38,0,2.499-1.118,2.499-2.499c0-0.118-0.008-0.235-0.024-0.349l-0.412-33.042h0.144l17.669,34.529
	c0.428,0.835,1.286,1.36,2.225,1.36h13.338c1.38,0,2.499-1.118,2.499-2.499v-47.531
	C171.005,277.654,169.886,276.535,168.506,276.535z"/>
<path d="M216.023,278.136c-0.372-0.965-1.298-1.601-2.332-1.601h-13.724c-1.038,0-1.968,0.642-2.336,1.611l-18.049,47.531
	c-0.292,0.769-0.187,1.63,0.28,2.307c0.466,0.676,1.235,1.079,2.057,1.079h8.873c1.046,0,1.981-0.651,2.344-1.632l3.54-9.574h19.716
	c3.419,9.833,3.375,11.207,5.674,11.207h9.933c0.824,0,1.594-0.406,2.06-1.084c0.466-0.679,0.568-1.544,0.272-2.312L216.023,278.136
	z M199.905,307.911l6.772-20.548h0.001h0.122l6.269,20.548H199.905z"/>
<path d="M306.647,276.535h-16.912c-1.075,0-2.03,0.688-2.37,1.707l-11.091,33.214h-0.153l-10.588-33.182
	c-0.331-1.036-1.293-1.739-2.381-1.739h-17.728c-1.38,0-2.499,1.118-2.499,2.499v47.531c0,1.38,1.118,2.499,2.499,2.499h8.684
	c0.007-0.001,0.013,0,0.02,0c1.38,0,2.499-1.118,2.499-2.499c0-0.114-0.008-0.226-0.022-0.335l-0.259-37.488h0.135l12.224,38.578
	c0.329,1.038,1.292,1.744,2.382,1.744h9.242c1.076,0,2.031-0.689,2.371-1.709l12.855-38.612h0.139l-0.232,37.808
	c-0.004,0.665,0.257,1.304,0.727,1.776c0.469,0.472,1.106,0.738,1.772,0.738h8.686c1.38,0,2.499-1.118,2.499-2.499v-47.531
	C309.146,277.654,308.026,276.535,306.647,276.535z"/>
<path d="M361.7,318.267c-0.631-0.435-1.426-0.555-2.158-0.328c-3.542,1.101-6.932,1.66-10.074,1.66
	c-10.65,0-17.531-6.507-17.531-16.578c0-10.168,6.591-17.001,16.401-17.001c3.7,0,7.165,0.71,10.595,2.17
	c0.731,0.311,1.566,0.256,2.25-0.148c0.684-0.404,1.134-1.109,1.214-1.9l0.58-5.731c0.123-1.21-0.646-2.334-1.817-2.659
	c-3.313-0.921-8.324-2.144-13.551-2.144c-18.569,0-30.105,10.504-30.105,27.412c0,19.897,16.249,26.958,30.165,26.958
	c6.048,0,10.159-0.835,13.538-1.618c1.191-0.276,2.008-1.374,1.93-2.594l-0.359-5.601
	C362.728,319.402,362.331,318.702,361.7,318.267z"/>
<path d="M395.819,275.611c-16.74,0-26.341,9.912-26.341,27.194c0,17.271,9.6,27.176,26.341,27.176
	c16.738,0,26.337-9.905,26.337-27.176C422.157,285.523,412.557,275.611,395.819,275.611z M395.819,319.599
	c-7.448,0-11.895-6.279-11.895-16.795c0-5.046,1.159-16.783,11.895-16.783c10.741,0,11.9,11.737,11.9,16.783
	C407.719,313.321,403.271,319.599,395.819,319.599z"/>
<g>
</g>
<g>
</g>
<g>
</g>
<g>
</g>
<g>
</g>
<g>
</g>
<g>
</g>
<g>
</g>
<g>
</g>
<g>
</g>
<g>
</g>
<g>
</g>
<g>
</g>
<g>
</g>
<g>
</g>
</svg>
