<?xml version="1.0" encoding="iso-8859-1"?>
<!-- Generator: Adobe Illustrator 19.0.0, SVG Export Plug-In . SVG Version: 6.00 Build 0)  -->
<svg version="1.1" id="Capa_1" xmlns="http://www.w3.org/2000/svg" xmlns:xlink="http://www.w3.org/1999/xlink" x="0px" y="0px"
	 viewBox="0 0 512 512" style="enable-background:new 0 0 512 512;" xml:space="preserve">
<g>
	<g>
		<ellipse transform="matrix(0.8132 -0.582 0.582 0.8132 -158.3954 169.916)" cx="185.487" cy="331.697" rx="9.022" ry="16.247"/>
	</g>
</g>
<g>
	<g>
		<ellipse transform="matrix(0.8132 -0.582 0.582 0.8132 -103.9845 173.6442)" cx="218.499" cy="248.802" rx="9.022" ry="16.247"/>
	</g>
</g>
<g>
	<g>
		<ellipse transform="matrix(0.8132 -0.582 0.582 0.8132 -119.8029 230.8407)" cx="299.688" cy="302.042" rx="9.022" ry="16.247"/>
	</g>
</g>
<g>
	<g>
		<ellipse transform="matrix(0.8132 -0.582 0.582 0.8132 -26.5244 275.1357)" cx="415.328" cy="178.886" rx="9.022" ry="16.247"/>
	</g>
</g>
<g>
	<g>
		<ellipse transform="matrix(0.8132 -0.582 0.582 0.8132 -89.5276 279.6527)" cx="390.862" cy="279.287" rx="9.022" ry="16.247"/>
	</g>
</g>
<g>
	<g>
		<ellipse transform="matrix(0.8132 -0.582 0.582 0.8132 -129.3115 325.0601)" cx="441.703" cy="363.964" rx="9.022" ry="16.247"/>
	</g>
</g>
<g>
	<g>
		<ellipse transform="matrix(0.8132 -0.582 0.582 0.8132 -176.4076 268.6742)" cx="330.323" cy="409.136" rx="9.022" ry="16.247"/>
	</g>
</g>
<g>
	<g>
		<ellipse transform="matrix(0.8132 -0.582 0.582 0.8132 -186.1727 322.0204)" cx="408.538" cy="451.019" rx="9.022" ry="16.247"/>
	</g>
</g>
<g>
	<g>
		<ellipse transform="matrix(0.8132 -0.582 0.582 0.8132 -196.1305 209.0085)" cx="227.514" cy="410.024" rx="9.022" ry="16.247"/>
	</g>
</g>
<g>
	<g>
		<ellipse transform="matrix(0.8132 -0.582 0.582 0.8132 -52.0619 221.2626)" cx="318.639" cy="191.73" rx="9.022" ry="16.247"/>
	</g>
</g>
<g>
	<g>
		<path d="M484.512,355.756c-4.156-0.31-7.741,2.794-8.051,6.93c-2.453,32.895-9.062,64.258-19.647,93.207
			c-8.982,24.574-32.635,41.086-58.84,41.086c-1.692,0-3.415-0.07-5.107-0.21c-105.484-8.582-202.537-76.334-203.498-77.015
			c-0.06-0.05-0.12-0.09-0.18-0.13c-25.525-16.933-44.961-42.138-54.755-70.957c-1.332-3.925-5.598-6.028-9.523-4.696
			c-3.925,1.332-6.028,5.598-4.696,9.523c10.835,31.924,32.344,59.822,60.573,78.587c1.953,1.372,26.236,18.265,63.757,36.43
			c35.428,17.143,89.703,38.563,147.101,43.229c2.103,0.17,4.226,0.26,6.329,0.26c32.494,0,61.805-20.478,72.94-50.95
			c11.065-30.251,17.965-62.976,20.528-97.243C491.742,359.672,488.648,356.067,484.512,355.756z"/>
	</g>
</g>
<g>
	<g>
		<path d="M477.413,219.93c-16.583-63.487-72.559-110.081-134.434-112.774c6.369-12.036,9.683-24.493,11.245-35.869
			c0.571-4.116-2.303-7.901-6.419-8.462c-4.106-0.571-7.891,2.303-8.462,6.409c-2.033,14.77-6.739,27.568-14.089,38.393
			c-15.071,1.492-29.54,5.788-42.789,12.707c0.551-2.724,0.981-5.468,1.292-8.241c0.471-4.126-2.503-7.841-6.619-8.301
			c-4.136-0.461-7.841,2.503-8.301,6.629c-0.871,7.761-2.904,15.301-6.088,22.611l-40.796,29.2
			c-2.447-3.407-4.408-5.774-5.107-6.659c-8.071-13.198-15.842-31.463-15.842-52.922c0-24.744,10.234-49.408,30.422-73.31
			c1.652-1.963,3.765-2.253,4.877-2.253c2.033,0,3.915,0.921,5.147,2.533c5.327,6.97,11.576,16.282,16.803,27.207
			c3.977,8.263,7.151,17.033,9.072,26.116c0.861,4.056,4.847,6.649,8.902,5.798c4.056-0.861,6.649-4.847,5.798-8.912
			c-1.632-7.671-3.995-14.97-6.799-21.79c10.234-15.621,26.757-30.632,52.802-42.448c0.841-0.38,1.722-0.571,2.614-0.571
			c2.604,0,5.608,1.762,6.319,5.127c1.462,6.909,2.483,13.889,3.034,20.728c0.33,4.136,3.935,7.22,8.081,6.889
			c4.136-0.33,7.22-3.945,6.889-8.081c-0.601-7.49-1.712-15.111-3.305-22.651C349.568,7.16,340.726,0,330.642,0
			c-3.044,0-6.018,0.641-8.822,1.913c-25.114,11.386-42.388,25.515-54.084,40.525c-4.747-8.622-9.843-16.042-14.35-21.94
			c-4.106-5.357-10.324-8.432-17.083-8.432c-6.319,0-12.287,2.764-16.352,7.58c-22.541,26.687-33.966,54.615-33.966,83.003
			c0,3.875,0.23,7.65,0.631,11.326L153.54,67.763c-2.413-3.375-7.11-4.146-10.484-1.742c-3.365,2.423-4.146,7.11-1.732,10.484
			l32.434,45.312c-23.702-10.655-56.427-14.96-98.865,1.652c-6.058,2.373-10.665,7.3-12.617,13.529
			c-1.963,6.249-0.991,12.958,2.644,18.385c3.955,5.908,9.363,13.208,16.172,20.668c-19.727,6.819-38.413,19.557-55.846,38.122
			c-3.735,3.975-5.788,9.173-5.788,14.63c0,7.66,3.915,14.57,10.484,18.485c6.639,3.955,13.518,7.48,20.428,10.464
			c3.815,1.642,8.231-0.11,9.873-3.915c1.642-3.815-0.11-8.231-3.915-9.874c-6.319-2.734-12.617-5.958-18.696-9.583
			c-1.983-1.172-3.154-3.254-3.154-5.578c0-1.142,0.29-2.824,1.722-4.346c17.874-19.036,37.031-31.213,57.148-36.38
			c16.32,14.27,35.337,24.306,56.587,27.017c-10.984,10.363-19.775,22.718-26.093,36.484c-13.245,3.607-26.931,3.529-40.458,0.907
			c-4.076-0.781-8.011,1.873-8.802,5.948s1.873,8.011,5.948,8.802c7.4,1.432,14.74,2.163,21.81,2.163h0.01
			c5.217,0,10.304-0.381,15.261-1.132c-3.505,11.916-5.337,24.594-5.337,37.752c0,5.518,0.33,11.135,0.981,16.693
			c0.481,4.126,4.216,7.07,8.331,6.589c4.116-0.481,7.07-4.206,6.589-8.331c-0.581-4.977-0.881-10.014-0.881-14.95
			c0-16.946,3.514-32.853,9.111-45.648c13.138-30.661,36.317-44.126,36.992-44.915l0.499-0.349c0.004-0.003,0.011-0.008,0.018-0.013
			c0.012-0.008,0.023-0.017,0.032-0.023c0.008-0.006,0.017-0.012,0.026-0.019c0.01-0.007,0.016-0.011,0.014-0.01
			c1.065-0.762,12.124-8.678,103.243-73.898c65.337-46.782,163.228-3.268,185.654,82.583c9.663,37.001,14.59,73.841,14.64,109.52
			c0.01,4.146,3.375,7.5,7.51,7.5c4.137,0,7.52-3.353,7.51-7.52C492.483,296.274,487.396,258.152,477.413,219.93z M168.42,200.544
			c-18.386,1.54-36.66-3.219-54.324-15.311c-6.028-4.116-11.466-8.752-16.312-13.488c-8.892-8.712-15.742-17.784-20.388-24.714
			c-1.091-1.632-1.382-3.655-0.781-5.538c0.34-1.091,1.282-3.074,3.755-4.046c17.274-6.759,33.576-10.134,48.827-10.134
			c29.048,0,53.826,12.473,72.96,34.187l5.708,7.981c0.441,0.641,0.881,1.272,1.322,1.883L168.42,200.544z"/>
	</g>
</g>
<g>
	<g>
		<polygon points="173.898,215.104 173.897,215.105 173.908,215.097 		"/>
	</g>
</g>
<g>
	<g>
		<polygon points="173.896,215.105 173.894,215.107 173.897,215.105 		"/>
	</g>
</g>
<g>
</g>
<g>
</g>
<g>
</g>
<g>
</g>
<g>
</g>
<g>
</g>
<g>
</g>
<g>
</g>
<g>
</g>
<g>
</g>
<g>
</g>
<g>
</g>
<g>
</g>
<g>
</g>
<g>
</g>
</svg>
